inDegrees=no
num_controls=7
num_derivatives=13
num_iterations=166
num_multipliers=7
num_parameters=0
num_slacks=7
num_states=26
objective=5.205445
objective_accelerations=0.649921
objective_balance=0.024100
objective_effort=0.623239
objective_height=3.858450
objective_ligament=0.049734
solver_duration=1686.536866
status=Solve_Succeeded
success=true
DataType=double
version=3
OpenSimVersion=4.4-2022-07-23-0e9fedc
endheader
time	/jointset/ground_pelvis/pelvis_tilt/value	/jointset/ground_pelvis/pelvis_tx/value	/jointset/ground_pelvis/pelvis_ty/value	/jointset/hip_l/hip_flexion_l/value	/jointset/hip_l/hip_adduction_l/value	/jointset/hip_l/hip_rotation_l/value	/jointset/back/lumbar_extension/value	/jointset/patellofemoral_l/patellar_flexion_l/value	/jointset/knee_l/knee_flexion_l/value	/jointset/knee_l/knee_adduction_l/value	/jointset/knee_l/knee_rotation_l/value	/jointset/ankle_l/ankle_angle_l/value	/jointset/subtalar_l/subtalar_angle_l/value	/jointset/ground_pelvis/pelvis_tilt/speed	/jointset/ground_pelvis/pelvis_tx/speed	/jointset/ground_pelvis/pelvis_ty/speed	/jointset/hip_l/hip_flexion_l/speed	/jointset/hip_l/hip_adduction_l/speed	/jointset/hip_l/hip_rotation_l/speed	/jointset/back/lumbar_extension/speed	/jointset/patellofemoral_l/patellar_flexion_l/speed	/jointset/knee_l/knee_flexion_l/speed	/jointset/knee_l/knee_adduction_l/speed	/jointset/knee_l/knee_rotation_l/speed	/jointset/ankle_l/ankle_angle_l/speed	/jointset/subtalar_l/subtalar_angle_l/speed	/forceset/tau_hip_flexion_l	/forceset/tau_hip_adduction_l	/forceset/tau_hip_rotation_l	/forceset/tau_knee_flexion_l	/forceset/tau_ankle_angle_l	/forceset/tau_subtalar_angle_l	/forceset/tau_lumbar_extension	lambda_cid13_p0	lambda_cid13_p1	lambda_cid13_p2	lambda_cid13_p3	lambda_cid13_p4	lambda_cid13_p5	lambda_cid14_p0	/jointset/ground_pelvis/pelvis_tilt/accel	/jointset/ground_pelvis/pelvis_tx/accel	/jointset/ground_pelvis/pelvis_ty/accel	/jointset/hip_l/hip_flexion_l/accel	/jointset/hip_l/hip_adduction_l/accel	/jointset/hip_l/hip_rotation_l/accel	/jointset/back/lumbar_extension/accel	/jointset/patellofemoral_l/patellar_flexion_l/accel	/jointset/knee_l/knee_flexion_l/accel	/jointset/knee_l/knee_adduction_l/accel	/jointset/knee_l/knee_rotation_l/accel	/jointset/ankle_l/ankle_angle_l/accel	/jointset/subtalar_l/subtalar_angle_l/accel	gamma_cid13_p0	gamma_cid13_p1	gamma_cid13_p2	gamma_cid13_p3	gamma_cid13_p4	gamma_cid13_p5	gamma_cid14_p0
0.5	-0.1538183233826795	-0.07869276542557438	0.7539650318363839	1.167063985478901	-0.3119800049146721	-0.07234370635336296	-0.8116228477713227	1.075590228046907	1.075590228046893	-0.02494390003220356	-0.1745100753897165	0.1425148476401061	0.03132521440820047	-0.2444544625477634	-0.1985123471326707	-0.6256501630784027	2.211279129099788	0.007462315171336743	0.5003506175794246	-0.8090829025688321	2.194870333541753	2.19487033354161	0.3724914492961957	1.846025822897064e-05	0.3768777124489732	0.1450956647008914	-0.3165362894027031	0.006013197659749805	-0.009958053103585841	-0.2735068850598346	0.1334088566413077	0.04943025675380796	0.3573337651511264	-0.5933748418732764	-20.46536236940782	1.782353632862804	-17.65847131443771	-698.6408077814957	-74.0041458385093	-3.876179696922933	0.7471491442242083	0.9927799226376023	-0.3400468227369572	-1.883059208232929	0.1912616167406091	-0.7492788014100845	2.25398185447316	-1.641322782725358	-1.641322782725301	-0.2482961759374371	0.03811578804921682	-0.6489104912065107	0.05291021503046947	-1.905415237152997e-07	-1.442404652757172e-06	-5.87634179741341e-08	-2.032259354318786e-07	-2.360834432032321e-07	-9.984225186803566e-08	-2.358841465471937e-07
0.51	-0.1562250324642897	-0.08062828802602887	0.7476929396538533	1.189079638189971	-0.3118968627892425	-0.0673793163279081	-0.8196004345219007	1.097453641525736	1.097453641525823	-0.02123217027529187	-0.1745099964595249	0.1462500002546432	0.03277717864994474	-0.2368423379616839	-0.1885968146142452	-0.628624751568431	2.19156953578916	0.00915022068711395	0.4924918137748789	-0.7863759277567458	2.177512689883038	2.177512689882973	0.3698251869281474	-4.404754328094465e-06	0.3700746139834339	0.1452478778029536	-0.3242817217774241	0.005620276918586224	-0.01015410705213371	-0.27866407435145	0.1338781346847478	0.04926867115624844	0.3648096403285606	-0.8380973475273085	-20.19351366613168	1.557599766838001	-17.49590273226932	-705.1107218037101	-73.86185299399553	-3.237275674013269	0.774974887521935	0.9902034481296136	-0.2546817073050691	-2.057213271902737	0.1553142297633653	-0.8097316347122894	2.287833263099021	-1.827890237776601	-1.827890237764959	-0.2804437353207525	-0.02274585518659414	-0.7078097499801798	-0.0107899563737267	-1.735337820143934e-07	-1.328668507163305e-06	-5.525514797389646e-08	-1.988634213457206e-07	-2.152610922796791e-07	-7.7837161781219e-08	-2.199288231515142e-07
0.52	-0.1585542741456985	-0.0824648025949625	0.7413953982173893	1.210889734192044	-0.3117972897665016	-0.06249462443345857	-0.8273491959306539	1.119134497551917	1.119134497552102	-0.01754803363568118	-0.174510197821339	0.1499147618393722	0.03422923165987615	-0.2289609825067042	-0.1787107408285011	-0.6307400138652173	2.170167787301528	0.01074849463357904	0.4844109913809072	-0.7633178342037396	2.158358843011042	2.158358843011055	0.366972825836812	-3.759813803049025e-05	0.3627995064877929	0.1451134183382991	-0.3320271541521623	0.005227356177389754	-0.01035016100073426	-0.2838212636430681	0.1343474127281824	0.04910708555864927	0.3722855155059843	-1.085742717702811	-19.92803930351111	1.341727240912054	-17.38374477042229	-711.639422519504	-73.76801563199356	-2.655417236966308	0.8009953180042506	0.9868881761013436	-0.1681815840885509	-2.221490243634029	0.1733353028781151	-0.7936825192953625	2.324205602657192	-2.000563425381726	-2.000563425381732	-0.2855159205948978	0.0360501138199992	-0.7433122972268551	-0.004424298312937365	-1.544748255105403e-07	-1.212121207186923e-06	-6.040220671487545e-08	-1.943455970599248e-07	-1.943313799620694e-07	-6.03440617524436e-08	-2.018956289114229e-07
0.53	-0.1608034883319845	-0.08420268303804487	0.7350810173063853	1.232477570000919	-0.3116820925555333	-0.0576916068061933	-0.8348657514556634	1.14061501856032	1.140615018560577	-0.01389329580417804	-0.1745105329512478	0.1535045710671986	0.03567864212555554	-0.2208465146037053	-0.1688774738009781	-0.6319896610351413	2.14712666634124	0.01227402180776696	0.476159817442172	-0.7399523709287669	2.137456482101317	2.137456482101264	0.36394303193986	-3.243829093831554e-05	0.3550958857218145	0.1447209445561412	-0.3394066826055865	0.004692070584315084	-0.01057916078700575	-0.2890853855592729	0.1348004059918913	0.04882416130339248	0.3793915154570497	-1.341051480850997	-19.60824939290022	1.116880147402838	-17.15855424945653	-718.0324468261873	-73.60199340069202	-2.130627857209281	0.8219537546577869	0.9796886696099276	-0.08141685599257789	-2.386349104813313	0.1397381058445641	-0.8459243968873441	2.348851670341054	-2.178365424255745	-2.178365424265665	-0.31668087218144	-0.01770650398699557	-0.7939134629418846	-0.06362613373973186	-1.367983227715668e-07	-1.103445119936675e-06	-6.479234012888767e-08	-1.8945680231226e-07	-1.750294756719445e-07	-4.515313082576526e-08	-1.849484248673502e-07
0.54	-0.1629705015936021	-0.0858426022701459	0.7287585278091732	1.253826809383668	-0.311552124736592	-0.05297211883146323	-0.8421474253518393	1.161877857359531	1.161877857359859	-0.0102698498612436	-0.1745109075675203	0.1570153387880325	0.03712273441029895	-0.2125207975722904	-0.1591184986322361	-0.6323617311069885	2.122448502077463	0.01370261622816868	0.4677050608744434	-0.7163415084368308	2.114822401172072	2.114822401171953	0.3607144481254702	-4.549540948444834e-05	0.3469912050894933	0.1440497821510807	-0.3467862110590253	0.004156784991235109	-0.01080816057337413	-0.294349507475481	0.1352533992556027	0.0485412370481316	0.3864975154081015	-1.601077990380136	-19.29414084529761	0.9003713611549833	-16.97661614514947	-724.5070614117927	-73.48211600431148	-1.663216929157686	0.8432451436874528	0.9720298043451457	0.00733383552686134	-2.548898904331652	0.1539487521207741	-0.8343990450941191	2.373285446049921	-2.346907429286102	-2.346907429286122	-0.3252739040825318	0.0324067206921529	-0.8235242704954374	-0.06016202289354756	-1.20651343346928e-07	-1.00347760846853e-06	-6.83450242449792e-08	-1.841575721599743e-07	-1.57528550476058e-07	-3.250928060779008e-08	-1.692027418912131e-07
0.55	-0.1650533291122929	-0.08738538455572537	0.7224367025396599	1.274921301513371	-0.3114082697970499	-0.04833800186527695	-0.8491918992557205	1.182905890293952	1.18290589029421	-0.006679617359868415	-0.1745112901523038	0.1604432099692773	0.03855885565085735	-0.2040192389273113	-0.1494577903121132	-0.6318561406332627	2.096188880201322	0.01505067628508463	0.4590867667444115	-0.692529440785402	2.090508498336434	2.09050849833628	0.3572999711750727	-3.594256466111927e-05	0.3385286389150665	0.1431289557430177	-0.3537712136282825	0.003549627719497131	-0.01107049014139236	-0.2995894650679315	0.1355780901471337	0.04812414833822599	0.3931830462815521	-1.898344070827276	-18.91499600683883	0.6732108705992176	-16.65458226246405	-730.7304382536902	-73.2541135470365	-1.253682359709352	0.8574134614627459	0.9600803181588908	0.09421938112279325	-2.703667836430738	0.1226734995736012	-0.8804326135297615	2.388742157799885	-2.514952694193581	-2.514952694198805	-0.3545239867943046	-0.01551630464169981	-0.8658295004936045	-0.114708877666931	-1.050813861893429e-07	-9.082310241124843e-07	-7.33897403273714e-08	-1.784664616476374e-07	-1.411302544318653e-07	-2.340225710128145e-08	-1.536564859982054e-07
0.5600000000000001	-0.1670503805972251	-0.08883216196364137	0.7161243427204499	1.295745362622875	-0.3112514464835193	-0.0437910454436972	-0.8559975375364659	1.20368252000332	1.203682520003509	-0.003124527507273303	-0.1745117263828413	0.1637848141468625	0.03998443544175437	-0.1953655908199373	-0.1399175230995411	-0.6304686410464341	2.068362298038162	0.01629629102585311	0.4502729519514977	-0.6685743838095393	2.064541756161158	2.064541756160969	0.3536859183736473	-5.622456060452852e-05	0.3297378043575476	0.1419414922187848	-0.3607562161975451	0.002942470447782649	-0.01133281970954209	-0.3048294226603868	0.1359027810386733	0.04770705962835319	0.3998685771549951	-2.201673970567403	-18.54104745369189	0.4540265193652168	-16.36978290652026	-737.0516520379022	-73.06968796160201	-0.9026529113929548	0.873663036166438	0.9479415828349791	0.1837156581474327	-2.86229096173535	0.1334596888911719	-0.8735031776706018	2.401883310936727	-2.677475297213636	-2.677475297213638	-0.3651890742881438	0.02643975253862973	-0.8891779471138663	-0.1134894461276144	-9.020385575222227e-08	-8.186495522909555e-07	-8.022489476932435e-08	-1.72305094703239e-07	-1.260551133697051e-07	-1.853942564853254e-08	-1.38349542604953e-07
0.5700000000000001	-0.168960257544547	-0.0901842104562212	0.7098302579702875	1.316283504969771	-0.3110825676529093	-0.03933300869426196	-0.8625630449699507	1.224191389538789	1.224191389538926	0.0003934960779407341	-0.1745122570558804	0.1670370347220506	0.04139698007260566	-0.1865939688942914	-0.130518755717974	-0.6282013510508705	2.039014588893712	0.01746324796557596	0.4413070939764239	-0.6445197589137638	2.036968854542606	2.036968854542473	0.3498858081685809	-5.138843258445466e-05	0.3206654920823318	0.1405276216722316	-0.3673109539525396	0.002272090402074098	-0.01162470272500596	-0.3100140621145742	0.1361091590407198	0.0471723436670344	0.4061013576432144	-2.534564101792641	-18.11111262419298	0.2262310024037741	-15.96044623122026	-743.0671094417547	-72.78802055056653	-0.6107976931974325	0.8812707092990957	0.9318235066023232	0.2702558549639372	-3.008763047208422	0.1059547664086561	-0.9123473325437454	2.408353674940697	-2.836666114393892	-2.836666114385546	-0.3925144031836363	-0.01272878429378678	-0.9224189125296369	-0.1611746445583497	-7.639572590102467e-08	-7.343301997383272e-07	-8.701730719019891e-08	-1.654573131034773e-07	-1.121708865916932e-07	-1.599518946467306e-08	-1.236342535859827e-07
